# xmcd
#
# Track frame offsets: 
#        150
#        18782
#        36221
#        56087
#        71474
#        108038
#        126127
#        143119
#        169904
#        183746
#        206323
#        231017
#
# Disc length: 3264 seconds
#
# Revision: 0
# Processed by: cddbd v1.5.1PL0 Copyright (c) Steve Scherf et al.
# Submitted via: ExactAudioCopy v0.95a5
#
DISCID=9f0cbe0c
DTITLE=Вадим Певзнер - Вещь
DYEAR=2003
DGENRE=
TTITLE0=Вещь
TTITLE1=Песня
TTITLE2=Лётчик
TTITLE3=Профессор
TTITLE4=Такси
TTITLE5=Рап-папорт
TTITLE6=Речь
TTITLE7=Считалка
TTITLE8=Бологое
TTITLE9=Клошар
TTITLE10=Продюсер
TTITLE11=Майорова
EXTD=
EXTT0=
EXTT1=
EXTT2=
EXTT3=
EXTT4=
EXTT5=
EXTT6=
EXTT7=
EXTT8=
EXTT9=
EXTT10=
EXTT11=
PLAYORDER=
